<svg version='1.1' xmlns='http://www.w3.org/2000/svg' xmlns:xlink='http://www.w3.org/1999/xlink' x='0px' y='0px' width="614.20" height="398.20" viewBox='0 0 614.20 398.20' xml:space='preserve' > <style>g.day { animation: wave 3s ease 0s infinite normal forwards; transform: translate(0px, 0px); } @keyframes wave { 10% { transform: translate(0px, -24px); } 20% { transform: translate(0px, 0px); } } g[data-week="0"][data-day="0"] { animation-delay: 0.660s; } g[data-week="0"][data-day="1"] { animation-delay: 0.630s; } g[data-week="0"][data-day="2"] { animation-delay: 0.600s; } g[data-week="0"][data-day="3"] { animation-delay: 0.570s; } g[data-week="0"][data-day="4"] { animation-delay: 0.600s; } g[data-week="0"][data-day="5"] { animation-delay: 0.630s; } g[data-week="0"][data-day="6"] { animation-delay: 0.660s; } g[data-week="1"][data-day="0"] { animation-delay: 0.630s; } g[data-week="1"][data-day="1"] { animation-delay: 0.600s; } g[data-week="1"][data-day="2"] { animation-delay: 0.570s; } g[data-week="1"][data-day="3"] { animation-delay: 0.540s; } g[data-week="1"][data-day="4"] { animation-delay: 0.570s; } g[data-week="1"][data-day="5"] { animation-delay: 0.600s; } g[data-week="1"][data-day="6"] { animation-delay: 0.630s; } g[data-week="2"][data-day="0"] { animation-delay: 0.600s; } g[data-week="2"][data-day="1"] { animation-delay: 0.570s; } g[data-week="2"][data-day="2"] { animation-delay: 0.540s; } g[data-week="2"][data-day="3"] { animation-delay: 0.510s; } g[data-week="2"][data-day="4"] { animation-delay: 0.540s; } g[data-week="2"][data-day="5"] { animation-delay: 0.570s; } g[data-week="2"][data-day="6"] { animation-delay: 0.600s; } g[data-week="3"][data-day="0"] { animation-delay: 0.570s; } g[data-week="3"][data-day="1"] { animation-delay: 0.540s; } g[data-week="3"][data-day="2"] { animation-delay: 0.510s; } g[data-week="3"][data-day="3"] { animation-delay: 0.480s; } g[data-week="3"][data-day="4"] { animation-delay: 0.510s; } g[data-week="3"][data-day="5"] { animation-delay: 0.540s; } g[data-week="3"][data-day="6"] { animation-delay: 0.570s; } g[data-week="4"][data-day="0"] { animation-delay: 0.540s; } g[data-week="4"][data-day="1"] { animation-delay: 0.510s; } g[data-week="4"][data-day="2"] { animation-delay: 0.480s; } g[data-week="4"][data-day="3"] { animation-delay: 0.450s; } g[data-week="4"][data-day="4"] { animation-delay: 0.480s; } g[data-week="4"][data-day="5"] { animation-delay: 0.510s; } g[data-week="4"][data-day="6"] { animation-delay: 0.540s; } g[data-week="5"][data-day="0"] { animation-delay: 0.510s; } g[data-week="5"][data-day="1"] { animation-delay: 0.480s; } g[data-week="5"][data-day="2"] { animation-delay: 0.450s; } g[data-week="5"][data-day="3"] { animation-delay: 0.420s; } g[data-week="5"][data-day="4"] { animation-delay: 0.450s; } g[data-week="5"][data-day="5"] { animation-delay: 0.480s; } g[data-week="5"][data-day="6"] { animation-delay: 0.510s; } g[data-week="6"][data-day="0"] { animation-delay: 0.480s; } g[data-week="6"][data-day="1"] { animation-delay: 0.450s; } g[data-week="6"][data-day="2"] { animation-delay: 0.420s; } g[data-week="6"][data-day="3"] { animation-delay: 0.390s; } g[data-week="6"][data-day="4"] { animation-delay: 0.420s; } g[data-week="6"][data-day="5"] { animation-delay: 0.450s; } g[data-week="6"][data-day="6"] { animation-delay: 0.480s; } g[data-week="7"][data-day="0"] { animation-delay: 0.450s; } g[data-week="7"][data-day="1"] { animation-delay: 0.420s; } g[data-week="7"][data-day="2"] { animation-delay: 0.390s; } g[data-week="7"][data-day="3"] { animation-delay: 0.360s; } g[data-week="7"][data-day="4"] { animation-delay: 0.390s; } g[data-week="7"][data-day="5"] { animation-delay: 0.420s; } g[data-week="7"][data-day="6"] { animation-delay: 0.450s; } g[data-week="8"][data-day="0"] { animation-delay: 0.420s; } g[data-week="8"][data-day="1"] { animation-delay: 0.390s; } g[data-week="8"][data-day="2"] { animation-delay: 0.360s; } g[data-week="8"][data-day="3"] { animation-delay: 0.330s; } g[data-week="8"][data-day="4"] { animation-delay: 0.360s; } g[data-week="8"][data-day="5"] { animation-delay: 0.390s; } g[data-week="8"][data-day="6"] { animation-delay: 0.420s; } g[data-week="9"][data-day="0"] { animation-delay: 0.390s; } g[data-week="9"][data-day="1"] { animation-delay: 0.360s; } g[data-week="9"][data-day="2"] { animation-delay: 0.330s; } g[data-week="9"][data-day="3"] { animation-delay: 0.300s; } g[data-week="9"][data-day="4"] { animation-delay: 0.330s; } g[data-week="9"][data-day="5"] { animation-delay: 0.360s; } g[data-week="9"][data-day="6"] { animation-delay: 0.390s; } g[data-week="10"][data-day="0"] { animation-delay: 0.360s; } g[data-week="10"][data-day="1"] { animation-delay: 0.330s; } g[data-week="10"][data-day="2"] { animation-delay: 0.300s; } g[data-week="10"][data-day="3"] { animation-delay: 0.270s; } g[data-week="10"][data-day="4"] { animation-delay: 0.300s; } g[data-week="10"][data-day="5"] { animation-delay: 0.330s; } g[data-week="10"][data-day="6"] { animation-delay: 0.360s; } g[data-week="11"][data-day="0"] { animation-delay: 0.330s; } g[data-week="11"][data-day="1"] { animation-delay: 0.300s; } g[data-week="11"][data-day="2"] { animation-delay: 0.270s; } g[data-week="11"][data-day="3"] { animation-delay: 0.240s; } g[data-week="11"][data-day="4"] { animation-delay: 0.270s; } g[data-week="11"][data-day="5"] { animation-delay: 0.300s; } g[data-week="11"][data-day="6"] { animation-delay: 0.330s; } g[data-week="12"][data-day="0"] { animation-delay: 0.300s; } g[data-week="12"][data-day="1"] { animation-delay: 0.270s; } g[data-week="12"][data-day="2"] { animation-delay: 0.240s; } g[data-week="12"][data-day="3"] { animation-delay: 0.210s; } g[data-week="12"][data-day="4"] { animation-delay: 0.240s; } g[data-week="12"][data-day="5"] { animation-delay: 0.270s; } g[data-week="12"][data-day="6"] { animation-delay: 0.300s; } g[data-week="13"][data-day="0"] { animation-delay: 0.270s; } g[data-week="13"][data-day="1"] { animation-delay: 0.240s; } g[data-week="13"][data-day="2"] { animation-delay: 0.210s; } g[data-week="13"][data-day="3"] { animation-delay: 0.180s; } g[data-week="13"][data-day="4"] { animation-delay: 0.210s; } g[data-week="13"][data-day="5"] { animation-delay: 0.240s; } g[data-week="13"][data-day="6"] { animation-delay: 0.270s; } g[data-week="14"][data-day="0"] { animation-delay: 0.240s; } g[data-week="14"][data-day="1"] { animation-delay: 0.210s; } g[data-week="14"][data-day="2"] { animation-delay: 0.180s; } g[data-week="14"][data-day="3"] { animation-delay: 0.150s; } g[data-week="14"][data-day="4"] { animation-delay: 0.180s; } g[data-week="14"][data-day="5"] { animation-delay: 0.210s; } g[data-week="14"][data-day="6"] { animation-delay: 0.240s; } g[data-week="15"][data-day="0"] { animation-delay: 0.210s; } g[data-week="15"][data-day="1"] { animation-delay: 0.180s; } g[data-week="15"][data-day="2"] { animation-delay: 0.150s; } g[data-week="15"][data-day="3"] { animation-delay: 0.120s; } g[data-week="15"][data-day="4"] { animation-delay: 0.150s; } g[data-week="15"][data-day="5"] { animation-delay: 0.180s; } g[data-week="15"][data-day="6"] { animation-delay: 0.210s; } g[data-week="16"][data-day="0"] { animation-delay: 0.180s; } g[data-week="16"][data-day="1"] { animation-delay: 0.150s; } g[data-week="16"][data-day="2"] { animation-delay: 0.120s; } g[data-week="16"][data-day="3"] { animation-delay: 0.090s; } g[data-week="16"][data-day="4"] { animation-delay: 0.120s; } g[data-week="16"][data-day="5"] { animation-delay: 0.150s; } g[data-week="16"][data-day="6"] { animation-delay: 0.180s; } g[data-week="17"][data-day="0"] { animation-delay: 0.150s; } g[data-week="17"][data-day="1"] { animation-delay: 0.120s; } g[data-week="17"][data-day="2"] { animation-delay: 0.090s; } g[data-week="17"][data-day="3"] { animation-delay: 0.060s; } g[data-week="17"][data-day="4"] { animation-delay: 0.090s; } g[data-week="17"][data-day="5"] { animation-delay: 0.120s; } g[data-week="17"][data-day="6"] { animation-delay: 0.150s; } g[data-week="18"][data-day="0"] { animation-delay: 0.120s; } g[data-week="18"][data-day="1"] { animation-delay: 0.090s; } g[data-week="18"][data-day="2"] { animation-delay: 0.060s; } g[data-week="18"][data-day="3"] { animation-delay: 0.030s; } g[data-week="18"][data-day="4"] { animation-delay: 0.060s; } g[data-week="18"][data-day="5"] { animation-delay: 0.090s; } g[data-week="18"][data-day="6"] { animation-delay: 0.120s; } g[data-week="19"][data-day="0"] { animation-delay: 0.090s; } g[data-week="19"][data-day="1"] { animation-delay: 0.060s; } g[data-week="19"][data-day="2"] { animation-delay: 0.030s; } g[data-week="19"][data-day="3"] { animation-delay: 0.000s; } g[data-week="19"][data-day="4"] { animation-delay: 0.030s; } g[data-week="19"][data-day="5"] { animation-delay: 0.060s; } g[data-week="19"][data-day="6"] { animation-delay: 0.090s; } g[data-week="20"][data-day="0"] { animation-delay: 0.120s; } g[data-week="20"][data-day="1"] { animation-delay: 0.090s; } g[data-week="20"][data-day="2"] { animation-delay: 0.060s; } g[data-week="20"][data-day="3"] { animation-delay: 0.030s; } g[data-week="20"][data-day="4"] { animation-delay: 0.060s; } g[data-week="20"][data-day="5"] { animation-delay: 0.090s; } g[data-week="20"][data-day="6"] { animation-delay: 0.120s; } g[data-week="21"][data-day="0"] { animation-delay: 0.150s; } g[data-week="21"][data-day="1"] { animation-delay: 0.120s; } g[data-week="21"][data-day="2"] { animation-delay: 0.090s; } g[data-week="21"][data-day="3"] { animation-delay: 0.060s; } g[data-week="21"][data-day="4"] { animation-delay: 0.090s; } g[data-week="21"][data-day="5"] { animation-delay: 0.120s; } g[data-week="21"][data-day="6"] { animation-delay: 0.150s; } g[data-week="22"][data-day="0"] { animation-delay: 0.180s; } g[data-week="22"][data-day="1"] { animation-delay: 0.150s; } g[data-week="22"][data-day="2"] { animation-delay: 0.120s; } g[data-week="22"][data-day="3"] { animation-delay: 0.090s; } g[data-week="22"][data-day="4"] { animation-delay: 0.120s; } g[data-week="22"][data-day="5"] { animation-delay: 0.150s; } g[data-week="22"][data-day="6"] { animation-delay: 0.180s; } g[data-week="23"][data-day="0"] { animation-delay: 0.210s; } g[data-week="23"][data-day="1"] { animation-delay: 0.180s; } g[data-week="23"][data-day="2"] { animation-delay: 0.150s; } g[data-week="23"][data-day="3"] { animation-delay: 0.120s; } g[data-week="23"][data-day="4"] { animation-delay: 0.150s; } g[data-week="23"][data-day="5"] { animation-delay: 0.180s; } g[data-week="23"][data-day="6"] { animation-delay: 0.210s; } g[data-week="24"][data-day="0"] { animation-delay: 0.240s; } g[data-week="24"][data-day="1"] { animation-delay: 0.210s; } g[data-week="24"][data-day="2"] { animation-delay: 0.180s; } g[data-week="24"][data-day="3"] { animation-delay: 0.150s; } g[data-week="24"][data-day="4"] { animation-delay: 0.180s; } g[data-week="24"][data-day="5"] { animation-delay: 0.210s; } g[data-week="24"][data-day="6"] { animation-delay: 0.240s; } g[data-week="25"][data-day="0"] { animation-delay: 0.270s; } g[data-week="25"][data-day="1"] { animation-delay: 0.240s; } g[data-week="25"][data-day="2"] { animation-delay: 0.210s; } g[data-week="25"][data-day="3"] { animation-delay: 0.180s; } g[data-week="25"][data-day="4"] { animation-delay: 0.210s; } g[data-week="25"][data-day="5"] { animation-delay: 0.240s; } g[data-week="25"][data-day="6"] { animation-delay: 0.270s; } g[data-week="26"][data-day="0"] { animation-delay: 0.300s; } g[data-week="26"][data-day="1"] { animation-delay: 0.270s; } g[data-week="26"][data-day="2"] { animation-delay: 0.240s; } g[data-week="26"][data-day="3"] { animation-delay: 0.210s; } g[data-week="26"][data-day="4"] { animation-delay: 0.240s; } g[data-week="26"][data-day="5"] { animation-delay: 0.270s; } g[data-week="26"][data-day="6"] { animation-delay: 0.300s; } g[data-week="27"][data-day="0"] { animation-delay: 0.330s; } g[data-week="27"][data-day="1"] { animation-delay: 0.300s; } g[data-week="27"][data-day="2"] { animation-delay: 0.270s; } g[data-week="27"][data-day="3"] { animation-delay: 0.240s; } g[data-week="27"][data-day="4"] { animation-delay: 0.270s; } g[data-week="27"][data-day="5"] { animation-delay: 0.300s; } g[data-week="27"][data-day="6"] { animation-delay: 0.330s; } g[data-week="28"][data-day="0"] { animation-delay: 0.360s; } g[data-week="28"][data-day="1"] { animation-delay: 0.330s; } g[data-week="28"][data-day="2"] { animation-delay: 0.300s; } g[data-week="28"][data-day="3"] { animation-delay: 0.270s; } g[data-week="28"][data-day="4"] { animation-delay: 0.300s; } g[data-week="28"][data-day="5"] { animation-delay: 0.330s; } g[data-week="28"][data-day="6"] { animation-delay: 0.360s; } g[data-week="29"][data-day="0"] { animation-delay: 0.390s; } g[data-week="29"][data-day="1"] { animation-delay: 0.360s; } g[data-week="29"][data-day="2"] { animation-delay: 0.330s; } g[data-week="29"][data-day="3"] { animation-delay: 0.300s; } g[data-week="29"][data-day="4"] { animation-delay: 0.330s; } g[data-week="29"][data-day="5"] { animation-delay: 0.360s; } g[data-week="29"][data-day="6"] { animation-delay: 0.390s; } </style> <defs> </defs> <g transform="translate(116.20000000000002,80)"> <g data-week="0" data-day="0" class="day"><path d="M0.00,12.80 -16.00,4.80 -16.00,8.00 0.00,16.00 z" fill="#212427"></path><path d="M0.00,12.80 16.00,4.80 16.00,8.00 0.00,16.00 z" fill="#26292d"></path><path d="M0.00,12.80 -16.00,4.80 0.00,-3.20 16.00,4.80 z" fill="#2d3135"></path></g> <g data-week="0" data-day="1" class="day"><path d="M-16.60,4.40 -32.60,-3.60 -32.60,16.60 -16.60,24.60 z" fill="#0e3315"></path><path d="M-16.60,4.40 -0.60,-3.60 -0.60,16.60 -16.60,24.60 z" fill="#103a18"></path><path d="M-16.60,4.40 -32.60,-3.60 -16.60,-11.60 -0.60,-3.60 z" fill="#13451d"></path></g> <g data-week="0" data-day="2" class="day"><path d="M-33.20,20.00 -49.20,12.00 -49.20,25.20 -33.20,33.20 z" fill="#0e3315"></path><path d="M-33.20,20.00 -17.20,12.00 -17.20,25.20 -33.20,33.20 z" fill="#103a18"></path><path d="M-33.20,20.00 -49.20,12.00 -33.20,4.00 -17.20,12.00 z" fill="#13451d"></path></g> <g data-week="0" data-day="3" class="day"><path d="M-49.80,34.60 -65.80,26.60 -65.80,33.80 -49.80,41.80 z" fill="#0e3315"></path><path d="M-49.80,34.60 -33.80,26.60 -33.80,33.80 -49.80,41.80 z" fill="#103a18"></path><path d="M-49.80,34.60 -65.80,26.60 -49.80,18.60 -33.80,26.60 z" fill="#13451d"></path></g> <g data-week="0" data-day="4" class="day"><path d="M-66.40,47.20 -82.40,39.20 -82.40,42.40 -66.40,50.40 z" fill="#212427"></path><path d="M-66.40,47.20 -50.40,39.20 -50.40,42.40 -66.40,50.40 z" fill="#26292d"></path><path d="M-66.40,47.20 -82.40,39.20 -66.40,31.20 -50.40,39.20 z" fill="#2d3135"></path></g> <g data-week="0" data-day="5" class="day"><path d="M-83.00,55.80 -99.00,47.80 -99.00,51.00 -83.00,59.00 z" fill="#212427"></path><path d="M-83.00,55.80 -67.00,47.80 -67.00,51.00 -83.00,59.00 z" fill="#26292d"></path><path d="M-83.00,55.80 -99.00,47.80 -83.00,39.80 -67.00,47.80 z" fill="#2d3135"></path></g> <g data-week="0" data-day="6" class="day"><path d="M-99.60,64.40 -115.60,56.40 -115.60,59.60 -99.60,67.60 z" fill="#212427"></path><path d="M-99.60,64.40 -83.60,56.40 -83.60,59.60 -99.60,67.60 z" fill="#26292d"></path><path d="M-99.60,64.40 -115.60,56.40 -99.60,48.40 -83.60,56.40 z" fill="#2d3135"></path></g> <g data-week="1" data-day="0" class="day"><path d="M16.60,21.40 0.60,13.40 0.60,16.60 16.60,24.60 z" fill="#212427"></path><path d="M16.60,21.40 32.60,13.40 32.60,16.60 16.60,24.60 z" fill="#26292d"></path><path d="M16.60,21.40 0.60,13.40 16.60,5.40 32.60,13.40 z" fill="#2d3135"></path></g> <g data-week="1" data-day="1" class="day"><path d="M0.00,20.00 -16.00,12.00 -16.00,25.20 0.00,33.20 z" fill="#0e3315"></path><path d="M0.00,20.00 16.00,12.00 16.00,25.20 0.00,33.20 z" fill="#103a18"></path><path d="M0.00,20.00 -16.00,12.00 0.00,4.00 16.00,12.00 z" fill="#13451d"></path></g> <g data-week="1" data-day="2" class="day"><path d="M-16.60,31.60 -32.60,23.60 -32.60,33.80 -16.60,41.80 z" fill="#0e3315"></path><path d="M-16.60,31.60 -0.60,23.60 -0.60,33.80 -16.60,41.80 z" fill="#103a18"></path><path d="M-16.60,31.60 -32.60,23.60 -16.60,15.60 -0.60,23.60 z" fill="#13451d"></path></g> <g data-week="1" data-day="3" class="day"><path d="M-33.20,40.20 -49.20,32.20 -49.20,42.40 -33.20,50.40 z" fill="#0e3315"></path><path d="M-33.20,40.20 -17.20,32.20 -17.20,42.40 -33.20,50.40 z" fill="#103a18"></path><path d="M-33.20,40.20 -49.20,32.20 -33.20,24.20 -17.20,32.20 z" fill="#13451d"></path></g> <g data-week="1" data-day="4" class="day"><path d="M-49.80,45.80 -65.80,37.80 -65.80,51.00 -49.80,59.00 z" fill="#0e3315"></path><path d="M-49.80,45.80 -33.80,37.80 -33.80,51.00 -49.80,59.00 z" fill="#103a18"></path><path d="M-49.80,45.80 -65.80,37.80 -49.80,29.80 -33.80,37.80 z" fill="#13451d"></path></g> <g data-week="1" data-day="5" class="day"><path d="M-66.40,54.40 -82.40,46.40 -82.40,59.60 -66.40,67.60 z" fill="#0e3315"></path><path d="M-66.40,54.40 -50.40,46.40 -50.40,59.60 -66.40,67.60 z" fill="#103a18"></path><path d="M-66.40,54.40 -82.40,46.40 -66.40,38.40 -50.40,46.40 z" fill="#13451d"></path></g> <g data-week="1" data-day="6" class="day"><path d="M-83.00,73.00 -99.00,65.00 -99.00,68.20 -83.00,76.20 z" fill="#212427"></path><path d="M-83.00,73.00 -67.00,65.00 -67.00,68.20 -83.00,76.20 z" fill="#26292d"></path><path d="M-83.00,73.00 -99.00,65.00 -83.00,57.00 -67.00,65.00 z" fill="#2d3135"></path></g> <g data-week="2" data-day="0" class="day"><path d="M33.20,30.00 17.20,22.00 17.20,25.20 33.20,33.20 z" fill="#212427"></path><path d="M33.20,30.00 49.20,22.00 49.20,25.20 33.20,33.20 z" fill="#26292d"></path><path d="M33.20,30.00 17.20,22.00 33.20,14.00 49.20,22.00 z" fill="#2d3135"></path></g> <g data-week="2" data-day="1" class="day"><path d="M16.60,34.60 0.60,26.60 0.60,33.80 16.60,41.80 z" fill="#0e3315"></path><path d="M16.60,34.60 32.60,26.60 32.60,33.80 16.60,41.80 z" fill="#103a18"></path><path d="M16.60,34.60 0.60,26.60 16.60,18.60 32.60,26.60 z" fill="#13451d"></path></g> <g data-week="2" data-day="2" class="day"><path d="M0.00,33.20 -16.00,25.20 -16.00,42.40 0.00,50.40 z" fill="#0e3315"></path><path d="M0.00,33.20 16.00,25.20 16.00,42.40 0.00,50.40 z" fill="#103a18"></path><path d="M0.00,33.20 -16.00,25.20 0.00,17.20 16.00,25.20 z" fill="#13451d"></path></g> <g data-week="2" data-day="3" class="day"><path d="M-16.60,8.80 -32.60,0.80 -32.60,51.00 -16.60,59.00 z" fill="#168c2e"></path><path d="M-16.60,8.80 -0.60,0.80 -0.60,51.00 -16.60,59.00 z" fill="#199e34"></path><path d="M-16.60,8.80 -32.60,0.80 -16.60,-7.20 -0.60,0.80 z" fill="#1ebb3e"></path></g> <g data-week="2" data-day="4" class="day"><path d="M-33.20,54.40 -49.20,46.40 -49.20,59.60 -33.20,67.60 z" fill="#0e3315"></path><path d="M-33.20,54.40 -17.20,46.40 -17.20,59.60 -33.20,67.60 z" fill="#103a18"></path><path d="M-33.20,54.40 -49.20,46.40 -33.20,38.40 -17.20,46.40 z" fill="#13451d"></path></g> <g data-week="2" data-day="5" class="day"><path d="M-49.80,69.00 -65.80,61.00 -65.80,68.20 -49.80,76.20 z" fill="#0e3315"></path><path d="M-49.80,69.00 -33.80,61.00 -33.80,68.20 -49.80,76.20 z" fill="#103a18"></path><path d="M-49.80,69.00 -65.80,61.00 -49.80,53.00 -33.80,61.00 z" fill="#13451d"></path></g> <g data-week="2" data-day="6" class="day"><path d="M-66.40,77.60 -82.40,69.60 -82.40,76.80 -66.40,84.80 z" fill="#0e3315"></path><path d="M-66.40,77.60 -50.40,69.60 -50.40,76.80 -66.40,84.80 z" fill="#103a18"></path><path d="M-66.40,77.60 -82.40,69.60 -66.40,61.60 -50.40,69.60 z" fill="#13451d"></path></g> <g data-week="3" data-day="0" class="day"><path d="M49.80,38.60 33.80,30.60 33.80,33.80 49.80,41.80 z" fill="#212427"></path><path d="M49.80,38.60 65.80,30.60 65.80,33.80 49.80,41.80 z" fill="#26292d"></path><path d="M49.80,38.60 33.80,30.60 49.80,22.60 65.80,30.60 z" fill="#2d3135"></path></g> <g data-week="3" data-day="1" class="day"><path d="M33.20,40.20 17.20,32.20 17.20,42.40 33.20,50.40 z" fill="#0e3315"></path><path d="M33.20,40.20 49.20,32.20 49.20,42.40 33.20,50.40 z" fill="#103a18"></path><path d="M33.20,40.20 17.20,32.20 33.20,24.20 49.20,32.20 z" fill="#13451d"></path></g> <g data-week="3" data-day="2" class="day"><path d="M16.60,48.80 0.60,40.80 0.60,51.00 16.60,59.00 z" fill="#0e3315"></path><path d="M16.60,48.80 32.60,40.80 32.60,51.00 16.60,59.00 z" fill="#103a18"></path><path d="M16.60,48.80 0.60,40.80 16.60,32.80 32.60,40.80 z" fill="#13451d"></path></g> <g data-week="3" data-day="3" class="day"><path d="M0.00,44.40 -16.00,36.40 -16.00,59.60 0.00,67.60 z" fill="#0e3315"></path><path d="M0.00,44.40 16.00,36.40 16.00,59.60 0.00,67.60 z" fill="#103a18"></path><path d="M0.00,44.40 -16.00,36.40 0.00,28.40 16.00,36.40 z" fill="#13451d"></path></g> <g data-week="3" data-day="4" class="day"><path d="M-16.60,53.00 -32.60,45.00 -32.60,68.20 -16.60,76.20 z" fill="#0e3315"></path><path d="M-16.60,53.00 -0.60,45.00 -0.60,68.20 -16.60,76.20 z" fill="#103a18"></path><path d="M-16.60,53.00 -32.60,45.00 -16.60,37.00 -0.60,45.00 z" fill="#13451d"></path></g> <g data-week="3" data-day="5" class="day"><path d="M-33.20,57.60 -49.20,49.60 -49.20,76.80 -33.20,84.80 z" fill="#135a21"></path><path d="M-33.20,57.60 -17.20,49.60 -17.20,76.80 -33.20,84.80 z" fill="#166626"></path><path d="M-33.20,57.60 -49.20,49.60 -33.20,41.60 -17.20,49.60 z" fill="#1a782d"></path></g> <g data-week="3" data-day="6" class="day"><path d="M-49.80,76.20 -65.80,68.20 -65.80,85.40 -49.80,93.40 z" fill="#0e3315"></path><path d="M-49.80,76.20 -33.80,68.20 -33.80,85.40 -49.80,93.40 z" fill="#103a18"></path><path d="M-49.80,76.20 -65.80,68.20 -49.80,60.20 -33.80,68.20 z" fill="#13451d"></path></g> <g data-week="4" data-day="0" class="day"><path d="M66.40,40.20 50.40,32.20 50.40,42.40 66.40,50.40 z" fill="#0e3315"></path><path d="M66.40,40.20 82.40,32.20 82.40,42.40 66.40,50.40 z" fill="#103a18"></path><path d="M66.40,40.20 50.40,32.20 66.40,24.20 82.40,32.20 z" fill="#13451d"></path></g> <g data-week="4" data-day="1" class="day"><path d="M49.80,48.80 33.80,40.80 33.80,51.00 49.80,59.00 z" fill="#0e3315"></path><path d="M49.80,48.80 65.80,40.80 65.80,51.00 49.80,59.00 z" fill="#103a18"></path><path d="M49.80,48.80 33.80,40.80 49.80,32.80 65.80,40.80 z" fill="#13451d"></path></g> <g data-week="4" data-day="2" class="day"><path d="M33.20,47.40 17.20,39.40 17.20,59.60 33.20,67.60 z" fill="#0e3315"></path><path d="M33.20,47.40 49.20,39.40 49.20,59.60 33.20,67.60 z" fill="#103a18"></path><path d="M33.20,47.40 17.20,39.40 33.20,31.40 49.20,39.40 z" fill="#13451d"></path></g> <g data-week="4" data-day="3" class="day"><path d="M16.60,63.00 0.60,55.00 0.60,68.20 16.60,76.20 z" fill="#0e3315"></path><path d="M16.60,63.00 32.60,55.00 32.60,68.20 16.60,76.20 z" fill="#103a18"></path><path d="M16.60,63.00 0.60,55.00 16.60,47.00 32.60,55.00 z" fill="#13451d"></path></g> <g data-week="4" data-day="4" class="day"><path d="M0.00,74.60 -16.00,66.60 -16.00,76.80 0.00,84.80 z" fill="#0e3315"></path><path d="M0.00,74.60 16.00,66.60 16.00,76.80 0.00,84.80 z" fill="#103a18"></path><path d="M0.00,74.60 -16.00,66.60 0.00,58.60 16.00,66.60 z" fill="#13451d"></path></g> <g data-week="4" data-day="5" class="day"><path d="M-16.60,86.20 -32.60,78.20 -32.60,85.40 -16.60,93.40 z" fill="#0e3315"></path><path d="M-16.60,86.20 -0.60,78.20 -0.60,85.40 -16.60,93.40 z" fill="#103a18"></path><path d="M-16.60,86.20 -32.60,78.20 -16.60,70.20 -0.60,78.20 z" fill="#13451d"></path></g> <g data-week="4" data-day="6" class="day"><path d="M-33.20,81.80 -49.20,73.80 -49.20,94.00 -33.20,102.00 z" fill="#0e3315"></path><path d="M-33.20,81.80 -17.20,73.80 -17.20,94.00 -33.20,102.00 z" fill="#103a18"></path><path d="M-33.20,81.80 -49.20,73.80 -33.20,65.80 -17.20,73.80 z" fill="#13451d"></path></g> <g data-week="5" data-day="0" class="day"><path d="M83.00,51.80 67.00,43.80 67.00,51.00 83.00,59.00 z" fill="#0e3315"></path><path d="M83.00,51.80 99.00,43.80 99.00,51.00 83.00,59.00 z" fill="#103a18"></path><path d="M83.00,51.80 67.00,43.80 83.00,35.80 99.00,43.80 z" fill="#13451d"></path></g> <g data-week="5" data-day="1" class="day"><path d="M66.40,54.40 50.40,46.40 50.40,59.60 66.40,67.60 z" fill="#0e3315"></path><path d="M66.40,54.40 82.40,46.40 82.40,59.60 66.40,67.60 z" fill="#103a18"></path><path d="M66.40,54.40 50.40,46.40 66.40,38.40 82.40,46.40 z" fill="#13451d"></path></g> <g data-week="5" data-day="2" class="day"><path d="M49.80,56.00 33.80,48.00 33.80,68.20 49.80,76.20 z" fill="#0e3315"></path><path d="M49.80,56.00 65.80,48.00 65.80,68.20 49.80,76.20 z" fill="#103a18"></path><path d="M49.80,56.00 33.80,48.00 49.80,40.00 65.80,48.00 z" fill="#13451d"></path></g> <g data-week="5" data-day="3" class="day"><path d="M33.20,67.60 17.20,59.60 17.20,76.80 33.20,84.80 z" fill="#0e3315"></path><path d="M33.20,67.60 49.20,59.60 49.20,76.80 33.20,84.80 z" fill="#103a18"></path><path d="M33.20,67.60 17.20,59.60 33.20,51.60 49.20,59.60 z" fill="#13451d"></path></g> <g data-week="5" data-day="4" class="day"><path d="M16.60,80.20 0.60,72.20 0.60,85.40 16.60,93.40 z" fill="#0e3315"></path><path d="M16.60,80.20 32.60,72.20 32.60,85.40 16.60,93.40 z" fill="#103a18"></path><path d="M16.60,80.20 0.60,72.20 16.60,64.20 32.60,72.20 z" fill="#13451d"></path></g> <g data-week="5" data-day="5" class="day"><path d="M0.00,84.80 -16.00,76.80 -16.00,94.00 0.00,102.00 z" fill="#0e3315"></path><path d="M0.00,84.80 16.00,76.80 16.00,94.00 0.00,102.00 z" fill="#103a18"></path><path d="M0.00,84.80 -16.00,76.80 0.00,68.80 16.00,76.80 z" fill="#13451d"></path></g> <g data-week="5" data-day="6" class="day"><path d="M-16.60,107.40 -32.60,99.40 -32.60,102.60 -16.60,110.60 z" fill="#212427"></path><path d="M-16.60,107.40 -0.60,99.40 -0.60,102.60 -16.60,110.60 z" fill="#26292d"></path><path d="M-16.60,107.40 -32.60,99.40 -16.60,91.40 -0.60,99.40 z" fill="#2d3135"></path></g> <g data-week="6" data-day="0" class="day"><path d="M99.60,64.40 83.60,56.40 83.60,59.60 99.60,67.60 z" fill="#212427"></path><path d="M99.60,64.40 115.60,56.40 115.60,59.60 99.60,67.60 z" fill="#26292d"></path><path d="M99.60,64.40 83.60,56.40 99.60,48.40 115.60,56.40 z" fill="#2d3135"></path></g> <g data-week="6" data-day="1" class="day"><path d="M83.00,56.00 67.00,48.00 67.00,68.20 83.00,76.20 z" fill="#0e3315"></path><path d="M83.00,56.00 99.00,48.00 99.00,68.20 83.00,76.20 z" fill="#103a18"></path><path d="M83.00,56.00 67.00,48.00 83.00,40.00 99.00,48.00 z" fill="#13451d"></path></g> <g data-week="6" data-day="2" class="day"><path d="M66.40,57.60 50.40,49.60 50.40,76.80 66.40,84.80 z" fill="#135a21"></path><path d="M66.40,57.60 82.40,49.60 82.40,76.80 66.40,84.80 z" fill="#166626"></path><path d="M66.40,57.60 50.40,49.60 66.40,41.60 82.40,49.60 z" fill="#1a782d"></path></g> <g data-week="6" data-day="3" class="day"><path d="M49.80,83.20 33.80,75.20 33.80,85.40 49.80,93.40 z" fill="#0e3315"></path><path d="M49.80,83.20 65.80,75.20 65.80,85.40 49.80,93.40 z" fill="#103a18"></path><path d="M49.80,83.20 33.80,75.20 49.80,67.20 65.80,75.20 z" fill="#13451d"></path></g> <g data-week="6" data-day="4" class="day"><path d="M33.20,84.80 17.20,76.80 17.20,94.00 33.20,102.00 z" fill="#0e3315"></path><path d="M33.20,84.80 49.20,76.80 49.20,94.00 33.20,102.00 z" fill="#103a18"></path><path d="M33.20,84.80 17.20,76.80 33.20,68.80 49.20,76.80 z" fill="#13451d"></path></g> <g data-week="6" data-day="5" class="day"><path d="M16.60,97.40 0.60,89.40 0.60,102.60 16.60,110.60 z" fill="#0e3315"></path><path d="M16.60,97.40 32.60,89.40 32.60,102.60 16.60,110.60 z" fill="#103a18"></path><path d="M16.60,97.40 0.60,89.40 16.60,81.40 32.60,89.40 z" fill="#13451d"></path></g> <g data-week="6" data-day="6" class="day"><path d="M0.00,116.00 -16.00,108.00 -16.00,111.20 0.00,119.20 z" fill="#212427"></path><path d="M0.00,116.00 16.00,108.00 16.00,111.20 0.00,119.20 z" fill="#26292d"></path><path d="M0.00,116.00 -16.00,108.00 0.00,100.00 16.00,108.00 z" fill="#2d3135"></path></g> <g data-week="7" data-day="0" class="day"><path d="M116.20,73.00 100.20,65.00 100.20,68.20 116.20,76.20 z" fill="#212427"></path><path d="M116.20,73.00 132.20,65.00 132.20,68.20 116.20,76.20 z" fill="#26292d"></path><path d="M116.20,73.00 100.20,65.00 116.20,57.00 132.20,65.00 z" fill="#2d3135"></path></g> <g data-week="7" data-day="1" class="day"><path d="M99.60,51.60 83.60,43.60 83.60,76.80 99.60,84.80 z" fill="#135a21"></path><path d="M99.60,51.60 115.60,43.60 115.60,76.80 99.60,84.80 z" fill="#166626"></path><path d="M99.60,51.60 83.60,43.60 99.60,35.60 115.60,43.60 z" fill="#1a782d"></path></g> <g data-week="7" data-day="2" class="day"><path d="M83.00,86.20 67.00,78.20 67.00,85.40 83.00,93.40 z" fill="#0e3315"></path><path d="M83.00,86.20 99.00,78.20 99.00,85.40 83.00,93.40 z" fill="#103a18"></path><path d="M83.00,86.20 67.00,78.20 83.00,70.20 99.00,78.20 z" fill="#13451d"></path></g> <g data-week="7" data-day="3" class="day"><path d="M66.40,91.80 50.40,83.80 50.40,94.00 66.40,102.00 z" fill="#0e3315"></path><path d="M66.40,91.80 82.40,83.80 82.40,94.00 66.40,102.00 z" fill="#103a18"></path><path d="M66.40,91.80 50.40,83.80 66.40,75.80 82.40,83.80 z" fill="#13451d"></path></g> <g data-week="7" data-day="4" class="day"><path d="M49.80,100.40 33.80,92.40 33.80,102.60 49.80,110.60 z" fill="#0e3315"></path><path d="M49.80,100.40 65.80,92.40 65.80,102.60 49.80,110.60 z" fill="#103a18"></path><path d="M49.80,100.40 33.80,92.40 49.80,84.40 65.80,92.40 z" fill="#13451d"></path></g> <g data-week="7" data-day="5" class="day"><path d="M33.20,112.00 17.20,104.00 17.20,111.20 33.20,119.20 z" fill="#0e3315"></path><path d="M33.20,112.00 49.20,104.00 49.20,111.20 33.20,119.20 z" fill="#103a18"></path><path d="M33.20,112.00 17.20,104.00 33.20,96.00 49.20,104.00 z" fill="#13451d"></path></g> <g data-week="7" data-day="6" class="day"><path d="M16.60,120.60 0.60,112.60 0.60,119.80 16.60,127.80 z" fill="#0e3315"></path><path d="M16.60,120.60 32.60,112.60 32.60,119.80 16.60,127.80 z" fill="#103a18"></path><path d="M16.60,120.60 0.60,112.60 16.60,104.60 32.60,112.60 z" fill="#13451d"></path></g> <g data-week="8" data-day="0" class="day"><path d="M132.80,81.60 116.80,73.60 116.80,76.80 132.80,84.80 z" fill="#212427"></path><path d="M132.80,81.60 148.80,73.60 148.80,76.80 132.80,84.80 z" fill="#26292d"></path><path d="M132.80,81.60 116.80,73.60 132.80,65.60 148.80,73.60 z" fill="#2d3135"></path></g> <g data-week="8" data-day="1" class="day"><path d="M116.20,80.20 100.20,72.20 100.20,85.40 116.20,93.40 z" fill="#0e3315"></path><path d="M116.20,80.20 132.20,72.20 132.20,85.40 116.20,93.40 z" fill="#103a18"></path><path d="M116.20,80.20 100.20,72.20 116.20,64.20 132.20,72.20 z" fill="#13451d"></path></g> <g data-week="8" data-day="2" class="day"><path d="M99.60,91.80 83.60,83.80 83.60,94.00 99.60,102.00 z" fill="#0e3315"></path><path d="M99.60,91.80 115.60,83.80 115.60,94.00 99.60,102.00 z" fill="#103a18"></path><path d="M99.60,91.80 83.60,83.80 99.60,75.80 115.60,83.80 z" fill="#13451d"></path></g> <g data-week="8" data-day="3" class="day"><path d="M83.00,107.40 67.00,99.40 67.00,102.60 83.00,110.60 z" fill="#212427"></path><path d="M83.00,107.40 99.00,99.40 99.00,102.60 83.00,110.60 z" fill="#26292d"></path><path d="M83.00,107.40 67.00,99.40 83.00,91.40 99.00,99.40 z" fill="#2d3135"></path></g> <g data-week="8" data-day="4" class="day"><path d="M66.40,116.00 50.40,108.00 50.40,111.20 66.40,119.20 z" fill="#212427"></path><path d="M66.40,116.00 82.40,108.00 82.40,111.20 66.40,119.20 z" fill="#26292d"></path><path d="M66.40,116.00 50.40,108.00 66.40,100.00 82.40,108.00 z" fill="#2d3135"></path></g> <g data-week="8" data-day="5" class="day"><path d="M49.80,124.60 33.80,116.60 33.80,119.80 49.80,127.80 z" fill="#212427"></path><path d="M49.80,124.60 65.80,116.60 65.80,119.80 49.80,127.80 z" fill="#26292d"></path><path d="M49.80,124.60 33.80,116.60 49.80,108.60 65.80,116.60 z" fill="#2d3135"></path></g> <g data-week="8" data-day="6" class="day"><path d="M33.20,133.20 17.20,125.20 17.20,128.40 33.20,136.40 z" fill="#212427"></path><path d="M33.20,133.20 49.20,125.20 49.20,128.40 33.20,136.40 z" fill="#26292d"></path><path d="M33.20,133.20 17.20,125.20 33.20,117.20 49.20,125.20 z" fill="#2d3135"></path></g> <g data-week="9" data-day="0" class="day"><path d="M149.40,90.20 133.40,82.20 133.40,85.40 149.40,93.40 z" fill="#212427"></path><path d="M149.40,90.20 165.40,82.20 165.40,85.40 149.40,93.40 z" fill="#26292d"></path><path d="M149.40,90.20 133.40,82.20 149.40,74.20 165.40,82.20 z" fill="#2d3135"></path></g> <g data-week="9" data-day="1" class="day"><path d="M132.80,81.80 116.80,73.80 116.80,94.00 132.80,102.00 z" fill="#0e3315"></path><path d="M132.80,81.80 148.80,73.80 148.80,94.00 132.80,102.00 z" fill="#103a18"></path><path d="M132.80,81.80 116.80,73.80 132.80,65.80 148.80,73.80 z" fill="#13451d"></path></g> <g data-week="9" data-day="2" class="day"><path d="M116.20,80.40 100.20,72.40 100.20,102.60 116.20,110.60 z" fill="#135a21"></path><path d="M116.20,80.40 132.20,72.40 132.20,102.60 116.20,110.60 z" fill="#166626"></path><path d="M116.20,80.40 100.20,72.40 116.20,64.40 132.20,72.40 z" fill="#1a782d"></path></g> <g data-week="9" data-day="3" class="day"><path d="M99.60,109.00 83.60,101.00 83.60,111.20 99.60,119.20 z" fill="#0e3315"></path><path d="M99.60,109.00 115.60,101.00 115.60,111.20 99.60,119.20 z" fill="#103a18"></path><path d="M99.60,109.00 83.60,101.00 99.60,93.00 115.60,101.00 z" fill="#13451d"></path></g> <g data-week="9" data-day="4" class="day"><path d="M83.00,104.60 67.00,96.60 67.00,119.80 83.00,127.80 z" fill="#0e3315"></path><path d="M83.00,104.60 99.00,96.60 99.00,119.80 83.00,127.80 z" fill="#103a18"></path><path d="M83.00,104.60 67.00,96.60 83.00,88.60 99.00,96.60 z" fill="#13451d"></path></g> <g data-week="9" data-day="5" class="day"><path d="M66.40,129.20 50.40,121.20 50.40,128.40 66.40,136.40 z" fill="#0e3315"></path><path d="M66.40,129.20 82.40,121.20 82.40,128.40 66.40,136.40 z" fill="#103a18"></path><path d="M66.40,129.20 50.40,121.20 66.40,113.20 82.40,121.20 z" fill="#13451d"></path></g> <g data-week="9" data-day="6" class="day"><path d="M49.80,141.80 33.80,133.80 33.80,137.00 49.80,145.00 z" fill="#212427"></path><path d="M49.80,141.80 65.80,133.80 65.80,137.00 49.80,145.00 z" fill="#26292d"></path><path d="M49.80,141.80 33.80,133.80 49.80,125.80 65.80,133.80 z" fill="#2d3135"></path></g> <g data-week="10" data-day="0" class="day"><path d="M166.00,98.80 150.00,90.80 150.00,94.00 166.00,102.00 z" fill="#212427"></path><path d="M166.00,98.80 182.00,90.80 182.00,94.00 166.00,102.00 z" fill="#26292d"></path><path d="M166.00,98.80 150.00,90.80 166.00,82.80 182.00,90.80 z" fill="#2d3135"></path></g> <g data-week="10" data-day="1" class="day"><path d="M149.40,100.40 133.40,92.40 133.40,102.60 149.40,110.60 z" fill="#0e3315"></path><path d="M149.40,100.40 165.40,92.40 165.40,102.60 149.40,110.60 z" fill="#103a18"></path><path d="M149.40,100.40 133.40,92.40 149.40,84.40 165.40,92.40 z" fill="#13451d"></path></g> <g data-week="10" data-day="2" class="day"><path d="M132.80,112.00 116.80,104.00 116.80,111.20 132.80,119.20 z" fill="#0e3315"></path><path d="M132.80,112.00 148.80,104.00 148.80,111.20 132.80,119.20 z" fill="#103a18"></path><path d="M132.80,112.00 116.80,104.00 132.80,96.00 148.80,104.00 z" fill="#13451d"></path></g> <g data-week="10" data-day="3" class="day"><path d="M116.20,110.60 100.20,102.60 100.20,119.80 116.20,127.80 z" fill="#0e3315"></path><path d="M116.20,110.60 132.20,102.60 132.20,119.80 116.20,127.80 z" fill="#103a18"></path><path d="M116.20,110.60 100.20,102.60 116.20,94.60 132.20,102.60 z" fill="#13451d"></path></g> <g data-week="10" data-day="4" class="day"><path d="M99.60,113.20 83.60,105.20 83.60,128.40 99.60,136.40 z" fill="#0e3315"></path><path d="M99.60,113.20 115.60,105.20 115.60,128.40 99.60,136.40 z" fill="#103a18"></path><path d="M99.60,113.20 83.60,105.20 99.60,97.20 115.60,105.20 z" fill="#13451d"></path></g> <g data-week="10" data-day="5" class="day"><path d="M83.00,137.80 67.00,129.80 67.00,137.00 83.00,145.00 z" fill="#0e3315"></path><path d="M83.00,137.80 99.00,129.80 99.00,137.00 83.00,145.00 z" fill="#103a18"></path><path d="M83.00,137.80 67.00,129.80 83.00,121.80 99.00,129.80 z" fill="#13451d"></path></g> <g data-week="10" data-day="6" class="day"><path d="M66.40,146.40 50.40,138.40 50.40,145.60 66.40,153.60 z" fill="#0e3315"></path><path d="M66.40,146.40 82.40,138.40 82.40,145.60 66.40,153.60 z" fill="#103a18"></path><path d="M66.40,146.40 50.40,138.40 66.40,130.40 82.40,138.40 z" fill="#13451d"></path></g> <g data-week="11" data-day="0" class="day"><path d="M182.60,107.40 166.60,99.40 166.60,102.60 182.60,110.60 z" fill="#212427"></path><path d="M182.60,107.40 198.60,99.40 198.60,102.60 182.60,110.60 z" fill="#26292d"></path><path d="M182.60,107.40 166.60,99.40 182.60,91.40 198.60,99.40 z" fill="#2d3135"></path></g> <g data-week="11" data-day="1" class="day"><path d="M166.00,112.00 150.00,104.00 150.00,111.20 166.00,119.20 z" fill="#0e3315"></path><path d="M166.00,112.00 182.00,104.00 182.00,111.20 166.00,119.20 z" fill="#103a18"></path><path d="M166.00,112.00 150.00,104.00 166.00,96.00 182.00,104.00 z" fill="#13451d"></path></g> <g data-week="11" data-day="2" class="day"><path d="M149.40,117.60 133.40,109.60 133.40,119.80 149.40,127.80 z" fill="#0e3315"></path><path d="M149.40,117.60 165.40,109.60 165.40,119.80 149.40,127.80 z" fill="#103a18"></path><path d="M149.40,117.60 133.40,109.60 149.40,101.60 165.40,109.60 z" fill="#13451d"></path></g> <g data-week="11" data-day="3" class="day"><path d="M132.80,123.20 116.80,115.20 116.80,128.40 132.80,136.40 z" fill="#0e3315"></path><path d="M132.80,123.20 148.80,115.20 148.80,128.40 132.80,136.40 z" fill="#103a18"></path><path d="M132.80,123.20 116.80,115.20 132.80,107.20 148.80,115.20 z" fill="#13451d"></path></g> <g data-week="11" data-day="4" class="day"><path d="M116.20,114.80 100.20,106.80 100.20,137.00 116.20,145.00 z" fill="#135a21"></path><path d="M116.20,114.80 132.20,106.80 132.20,137.00 116.20,145.00 z" fill="#166626"></path><path d="M116.20,114.80 100.20,106.80 116.20,98.80 132.20,106.80 z" fill="#1a782d"></path></g> <g data-week="11" data-day="5" class="day"><path d="M99.60,143.40 83.60,135.40 83.60,145.60 99.60,153.60 z" fill="#0e3315"></path><path d="M99.60,143.40 115.60,135.40 115.60,145.60 99.60,153.60 z" fill="#103a18"></path><path d="M99.60,143.40 83.60,135.40 99.60,127.40 115.60,135.40 z" fill="#13451d"></path></g> <g data-week="11" data-day="6" class="day"><path d="M83.00,155.00 67.00,147.00 67.00,154.20 83.00,162.20 z" fill="#0e3315"></path><path d="M83.00,155.00 99.00,147.00 99.00,154.20 83.00,162.20 z" fill="#103a18"></path><path d="M83.00,155.00 67.00,147.00 83.00,139.00 99.00,147.00 z" fill="#13451d"></path></g> <g data-week="12" data-day="0" class="day"><path d="M199.20,106.00 183.20,98.00 183.20,111.20 199.20,119.20 z" fill="#0e3315"></path><path d="M199.20,106.00 215.20,98.00 215.20,111.20 199.20,119.20 z" fill="#103a18"></path><path d="M199.20,106.00 183.20,98.00 199.20,90.00 215.20,98.00 z" fill="#13451d"></path></g> <g data-week="12" data-day="1" class="day"><path d="M182.60,120.60 166.60,112.60 166.60,119.80 182.60,127.80 z" fill="#0e3315"></path><path d="M182.60,120.60 198.60,112.60 198.60,119.80 182.60,127.80 z" fill="#103a18"></path><path d="M182.60,120.60 166.60,112.60 182.60,104.60 198.60,112.60 z" fill="#13451d"></path></g> <g data-week="12" data-day="2" class="day"><path d="M166.00,126.20 150.00,118.20 150.00,128.40 166.00,136.40 z" fill="#0e3315"></path><path d="M166.00,126.20 182.00,118.20 182.00,128.40 166.00,136.40 z" fill="#103a18"></path><path d="M166.00,126.20 150.00,118.20 166.00,110.20 182.00,118.20 z" fill="#13451d"></path></g> <g data-week="12" data-day="3" class="day"><path d="M149.40,137.80 133.40,129.80 133.40,137.00 149.40,145.00 z" fill="#0e3315"></path><path d="M149.40,137.80 165.40,129.80 165.40,137.00 149.40,145.00 z" fill="#103a18"></path><path d="M149.40,137.80 133.40,129.80 149.40,121.80 165.40,129.80 z" fill="#13451d"></path></g> <g data-week="12" data-day="4" class="day"><path d="M132.80,143.40 116.80,135.40 116.80,145.60 132.80,153.60 z" fill="#0e3315"></path><path d="M132.80,143.40 148.80,135.40 148.80,145.60 132.80,153.60 z" fill="#103a18"></path><path d="M132.80,143.40 116.80,135.40 132.80,127.40 148.80,135.40 z" fill="#13451d"></path></g> <g data-week="12" data-day="5" class="day"><path d="M116.20,149.00 100.20,141.00 100.20,154.20 116.20,162.20 z" fill="#0e3315"></path><path d="M116.20,149.00 132.20,141.00 132.20,154.20 116.20,162.20 z" fill="#103a18"></path><path d="M116.20,149.00 100.20,141.00 116.20,133.00 132.20,141.00 z" fill="#13451d"></path></g> <g data-week="12" data-day="6" class="day"><path d="M99.60,167.60 83.60,159.60 83.60,162.80 99.60,170.80 z" fill="#212427"></path><path d="M99.60,167.60 115.60,159.60 115.60,162.80 99.60,170.80 z" fill="#26292d"></path><path d="M99.60,167.60 83.60,159.60 99.60,151.60 115.60,159.60 z" fill="#2d3135"></path></g> <g data-week="13" data-day="0" class="day"><path d="M215.80,124.60 199.80,116.60 199.80,119.80 215.80,127.80 z" fill="#212427"></path><path d="M215.80,124.60 231.80,116.60 231.80,119.80 215.80,127.80 z" fill="#26292d"></path><path d="M215.80,124.60 199.80,116.60 215.80,108.60 231.80,116.60 z" fill="#2d3135"></path></g> <g data-week="13" data-day="1" class="day"><path d="M199.20,126.20 183.20,118.20 183.20,128.40 199.20,136.40 z" fill="#0e3315"></path><path d="M199.20,126.20 215.20,118.20 215.20,128.40 199.20,136.40 z" fill="#103a18"></path><path d="M199.20,126.20 183.20,118.20 199.20,110.20 215.20,118.20 z" fill="#13451d"></path></g> <g data-week="13" data-day="2" class="day"><path d="M182.60,127.80 166.60,119.80 166.60,137.00 182.60,145.00 z" fill="#0e3315"></path><path d="M182.60,127.80 198.60,119.80 198.60,137.00 182.60,145.00 z" fill="#103a18"></path><path d="M182.60,127.80 166.60,119.80 182.60,111.80 198.60,119.80 z" fill="#13451d"></path></g> <g data-week="13" data-day="3" class="day"><path d="M166.00,146.40 150.00,138.40 150.00,145.60 166.00,153.60 z" fill="#0e3315"></path><path d="M166.00,146.40 182.00,138.40 182.00,145.60 166.00,153.60 z" fill="#103a18"></path><path d="M166.00,146.40 150.00,138.40 166.00,130.40 182.00,138.40 z" fill="#13451d"></path></g> <g data-week="13" data-day="4" class="day"><path d="M149.40,155.00 133.40,147.00 133.40,154.20 149.40,162.20 z" fill="#0e3315"></path><path d="M149.40,155.00 165.40,147.00 165.40,154.20 149.40,162.20 z" fill="#103a18"></path><path d="M149.40,155.00 133.40,147.00 149.40,139.00 165.40,147.00 z" fill="#13451d"></path></g> <g data-week="13" data-day="5" class="day"><path d="M132.80,163.60 116.80,155.60 116.80,162.80 132.80,170.80 z" fill="#0e3315"></path><path d="M132.80,163.60 148.80,155.60 148.80,162.80 132.80,170.80 z" fill="#103a18"></path><path d="M132.80,163.60 116.80,155.60 132.80,147.60 148.80,155.60 z" fill="#13451d"></path></g> <g data-week="13" data-day="6" class="day"><path d="M116.20,172.20 100.20,164.20 100.20,171.40 116.20,179.40 z" fill="#0e3315"></path><path d="M116.20,172.20 132.20,164.20 132.20,171.40 116.20,179.40 z" fill="#103a18"></path><path d="M116.20,172.20 100.20,164.20 116.20,156.20 132.20,164.20 z" fill="#13451d"></path></g> <g data-week="14" data-day="0" class="day"><path d="M232.40,129.20 216.40,121.20 216.40,128.40 232.40,136.40 z" fill="#0e3315"></path><path d="M232.40,129.20 248.40,121.20 248.40,128.40 232.40,136.40 z" fill="#103a18"></path><path d="M232.40,129.20 216.40,121.20 232.40,113.20 248.40,121.20 z" fill="#13451d"></path></g> <g data-week="14" data-day="1" class="day"><path d="M215.80,141.80 199.80,133.80 199.80,137.00 215.80,145.00 z" fill="#212427"></path><path d="M215.80,141.80 231.80,133.80 231.80,137.00 215.80,145.00 z" fill="#26292d"></path><path d="M215.80,141.80 199.80,133.80 215.80,125.80 231.80,133.80 z" fill="#2d3135"></path></g> <g data-week="14" data-day="2" class="day"><path d="M199.20,136.40 183.20,128.40 183.20,145.60 199.20,153.60 z" fill="#0e3315"></path><path d="M199.20,136.40 215.20,128.40 215.20,145.60 199.20,153.60 z" fill="#103a18"></path><path d="M199.20,136.40 183.20,128.40 199.20,120.40 215.20,128.40 z" fill="#13451d"></path></g> <g data-week="14" data-day="3" class="day"><path d="M182.60,145.00 166.60,137.00 166.60,154.20 182.60,162.20 z" fill="#0e3315"></path><path d="M182.60,145.00 198.60,137.00 198.60,154.20 182.60,162.20 z" fill="#103a18"></path><path d="M182.60,145.00 166.60,137.00 182.60,129.00 198.60,137.00 z" fill="#13451d"></path></g> <g data-week="14" data-day="4" class="day"><path d="M166.00,140.60 150.00,132.60 150.00,162.80 166.00,170.80 z" fill="#135a21"></path><path d="M166.00,140.60 182.00,132.60 182.00,162.80 166.00,170.80 z" fill="#166626"></path><path d="M166.00,140.60 150.00,132.60 166.00,124.60 182.00,132.60 z" fill="#1a782d"></path></g> <g data-week="14" data-day="5" class="day"><path d="M149.40,166.20 133.40,158.20 133.40,171.40 149.40,179.40 z" fill="#0e3315"></path><path d="M149.40,166.20 165.40,158.20 165.40,171.40 149.40,179.40 z" fill="#103a18"></path><path d="M149.40,166.20 133.40,158.20 149.40,150.20 165.40,158.20 z" fill="#13451d"></path></g> <g data-week="14" data-day="6" class="day"><path d="M132.80,177.80 116.80,169.80 116.80,180.00 132.80,188.00 z" fill="#0e3315"></path><path d="M132.80,177.80 148.80,169.80 148.80,180.00 132.80,188.00 z" fill="#103a18"></path><path d="M132.80,177.80 116.80,169.80 132.80,161.80 148.80,169.80 z" fill="#13451d"></path></g> <g data-week="15" data-day="0" class="day"><path d="M249.00,141.80 233.00,133.80 233.00,137.00 249.00,145.00 z" fill="#212427"></path><path d="M249.00,141.80 265.00,133.80 265.00,137.00 249.00,145.00 z" fill="#26292d"></path><path d="M249.00,141.80 233.00,133.80 249.00,125.80 265.00,133.80 z" fill="#2d3135"></path></g> <g data-week="15" data-day="1" class="day"><path d="M232.40,146.40 216.40,138.40 216.40,145.60 232.40,153.60 z" fill="#0e3315"></path><path d="M232.40,146.40 248.40,138.40 248.40,145.60 232.40,153.60 z" fill="#103a18"></path><path d="M232.40,146.40 216.40,138.40 232.40,130.40 248.40,138.40 z" fill="#13451d"></path></g> <g data-week="15" data-day="2" class="day"><path d="M215.80,145.00 199.80,137.00 199.80,154.20 215.80,162.20 z" fill="#0e3315"></path><path d="M215.80,145.00 231.80,137.00 231.80,154.20 215.80,162.20 z" fill="#103a18"></path><path d="M215.80,145.00 199.80,137.00 215.80,129.00 231.80,137.00 z" fill="#13451d"></path></g> <g data-week="15" data-day="3" class="day"><path d="M199.20,143.60 183.20,135.60 183.20,162.80 199.20,170.80 z" fill="#135a21"></path><path d="M199.20,143.60 215.20,135.60 215.20,162.80 199.20,170.80 z" fill="#166626"></path><path d="M199.20,143.60 183.20,135.60 199.20,127.60 215.20,135.60 z" fill="#1a782d"></path></g> <g data-week="15" data-day="4" class="day"><path d="M182.60,169.20 166.60,161.20 166.60,171.40 182.60,179.40 z" fill="#0e3315"></path><path d="M182.60,169.20 198.60,161.20 198.60,171.40 182.60,179.40 z" fill="#103a18"></path><path d="M182.60,169.20 166.60,161.20 182.60,153.20 198.60,161.20 z" fill="#13451d"></path></g> <g data-week="15" data-day="5" class="day"><path d="M166.00,164.80 150.00,156.80 150.00,180.00 166.00,188.00 z" fill="#0e3315"></path><path d="M166.00,164.80 182.00,156.80 182.00,180.00 166.00,188.00 z" fill="#103a18"></path><path d="M166.00,164.80 150.00,156.80 166.00,148.80 182.00,156.80 z" fill="#13451d"></path></g> <g data-week="15" data-day="6" class="day"><path d="M149.40,193.40 133.40,185.40 133.40,188.60 149.40,196.60 z" fill="#212427"></path><path d="M149.40,193.40 165.40,185.40 165.40,188.60 149.40,196.60 z" fill="#26292d"></path><path d="M149.40,193.40 133.40,185.40 149.40,177.40 165.40,185.40 z" fill="#2d3135"></path></g> <g data-week="16" data-day="0" class="day"><path d="M265.60,150.40 249.60,142.40 249.60,145.60 265.60,153.60 z" fill="#212427"></path><path d="M265.60,150.40 281.60,142.40 281.60,145.60 265.60,153.60 z" fill="#26292d"></path><path d="M265.60,150.40 249.60,142.40 265.60,134.40 281.60,142.40 z" fill="#2d3135"></path></g> <g data-week="16" data-day="1" class="day"><path d="M249.00,149.00 233.00,141.00 233.00,154.20 249.00,162.20 z" fill="#0e3315"></path><path d="M249.00,149.00 265.00,141.00 265.00,154.20 249.00,162.20 z" fill="#103a18"></path><path d="M249.00,149.00 233.00,141.00 249.00,133.00 265.00,141.00 z" fill="#13451d"></path></g> <g data-week="16" data-day="2" class="day"><path d="M232.40,153.60 216.40,145.60 216.40,162.80 232.40,170.80 z" fill="#0e3315"></path><path d="M232.40,153.60 248.40,145.60 248.40,162.80 232.40,170.80 z" fill="#103a18"></path><path d="M232.40,153.60 216.40,145.60 232.40,137.60 248.40,145.60 z" fill="#13451d"></path></g> <g data-week="16" data-day="3" class="day"><path d="M215.80,162.20 199.80,154.20 199.80,171.40 215.80,179.40 z" fill="#0e3315"></path><path d="M215.80,162.20 231.80,154.20 231.80,171.40 215.80,179.40 z" fill="#103a18"></path><path d="M215.80,162.20 199.80,154.20 215.80,146.20 231.80,154.20 z" fill="#13451d"></path></g> <g data-week="16" data-day="4" class="day"><path d="M199.20,154.80 183.20,146.80 183.20,180.00 199.20,188.00 z" fill="#135a21"></path><path d="M199.20,154.80 215.20,146.80 215.20,180.00 199.20,188.00 z" fill="#166626"></path><path d="M199.20,154.80 183.20,146.80 199.20,138.80 215.20,146.80 z" fill="#1a782d"></path></g> <g data-week="16" data-day="5" class="day"><path d="M182.60,183.40 166.60,175.40 166.60,188.60 182.60,196.60 z" fill="#0e3315"></path><path d="M182.60,183.40 198.60,175.40 198.60,188.60 182.60,196.60 z" fill="#103a18"></path><path d="M182.60,183.40 166.60,175.40 182.60,167.40 198.60,175.40 z" fill="#13451d"></path></g> <g data-week="16" data-day="6" class="day"><path d="M166.00,202.00 150.00,194.00 150.00,197.20 166.00,205.20 z" fill="#212427"></path><path d="M166.00,202.00 182.00,194.00 182.00,197.20 166.00,205.20 z" fill="#26292d"></path><path d="M166.00,202.00 150.00,194.00 166.00,186.00 182.00,194.00 z" fill="#2d3135"></path></g> <g data-week="17" data-day="0" class="day"><path d="M282.20,159.00 266.20,151.00 266.20,154.20 282.20,162.20 z" fill="#212427"></path><path d="M282.20,159.00 298.20,151.00 298.20,154.20 282.20,162.20 z" fill="#26292d"></path><path d="M282.20,159.00 266.20,151.00 282.20,143.00 298.20,151.00 z" fill="#2d3135"></path></g> <g data-week="17" data-day="1" class="day"><path d="M265.60,153.60 249.60,145.60 249.60,162.80 265.60,170.80 z" fill="#0e3315"></path><path d="M265.60,153.60 281.60,145.60 281.60,162.80 265.60,170.80 z" fill="#103a18"></path><path d="M265.60,153.60 249.60,145.60 265.60,137.60 281.60,145.60 z" fill="#13451d"></path></g> <g data-week="17" data-day="2" class="day"><path d="M249.00,166.20 233.00,158.20 233.00,171.40 249.00,179.40 z" fill="#0e3315"></path><path d="M249.00,166.20 265.00,158.20 265.00,171.40 249.00,179.40 z" fill="#103a18"></path><path d="M249.00,166.20 233.00,158.20 249.00,150.20 265.00,158.20 z" fill="#13451d"></path></g> <g data-week="17" data-day="3" class="day"><path d="M232.40,177.80 216.40,169.80 216.40,180.00 232.40,188.00 z" fill="#0e3315"></path><path d="M232.40,177.80 248.40,169.80 248.40,180.00 232.40,188.00 z" fill="#103a18"></path><path d="M232.40,177.80 216.40,169.80 232.40,161.80 248.40,169.80 z" fill="#13451d"></path></g> <g data-week="17" data-day="4" class="day"><path d="M215.80,183.40 199.80,175.40 199.80,188.60 215.80,196.60 z" fill="#0e3315"></path><path d="M215.80,183.40 231.80,175.40 231.80,188.60 215.80,196.60 z" fill="#103a18"></path><path d="M215.80,183.40 199.80,175.40 215.80,167.40 231.80,175.40 z" fill="#13451d"></path></g> <g data-week="17" data-day="5" class="day"><path d="M199.20,195.00 183.20,187.00 183.20,197.20 199.20,205.20 z" fill="#0e3315"></path><path d="M199.20,195.00 215.20,187.00 215.20,197.20 199.20,205.20 z" fill="#103a18"></path><path d="M199.20,195.00 183.20,187.00 199.20,179.00 215.20,187.00 z" fill="#13451d"></path></g> <g data-week="17" data-day="6" class="day"><path d="M182.60,210.60 166.60,202.60 166.60,205.80 182.60,213.80 z" fill="#212427"></path><path d="M182.60,210.60 198.60,202.60 198.60,205.80 182.60,213.80 z" fill="#26292d"></path><path d="M182.60,210.60 166.60,202.60 182.60,194.60 198.60,202.60 z" fill="#2d3135"></path></g> <g data-week="18" data-day="0" class="day"><path d="M298.80,167.60 282.80,159.60 282.80,162.80 298.80,170.80 z" fill="#212427"></path><path d="M298.80,167.60 314.80,159.60 314.80,162.80 298.80,170.80 z" fill="#26292d"></path><path d="M298.80,167.60 282.80,159.60 298.80,151.60 314.80,159.60 z" fill="#2d3135"></path></g> <g data-week="18" data-day="1" class="day"><path d="M282.20,166.20 266.20,158.20 266.20,171.40 282.20,179.40 z" fill="#0e3315"></path><path d="M282.20,166.20 298.20,158.20 298.20,171.40 282.20,179.40 z" fill="#103a18"></path><path d="M282.20,166.20 266.20,158.20 282.20,150.20 298.20,158.20 z" fill="#13451d"></path></g> <g data-week="18" data-day="2" class="day"><path d="M265.60,170.80 249.60,162.80 249.60,180.00 265.60,188.00 z" fill="#0e3315"></path><path d="M265.60,170.80 281.60,162.80 281.60,180.00 265.60,188.00 z" fill="#103a18"></path><path d="M265.60,170.80 249.60,162.80 265.60,154.80 281.60,162.80 z" fill="#13451d"></path></g> <g data-week="18" data-day="3" class="day"><path d="M249.00,186.40 233.00,178.40 233.00,188.60 249.00,196.60 z" fill="#0e3315"></path><path d="M249.00,186.40 265.00,178.40 265.00,188.60 249.00,196.60 z" fill="#103a18"></path><path d="M249.00,186.40 233.00,178.40 249.00,170.40 265.00,178.40 z" fill="#13451d"></path></g> <g data-week="18" data-day="4" class="day"><path d="M232.40,195.00 216.40,187.00 216.40,197.20 232.40,205.20 z" fill="#0e3315"></path><path d="M232.40,195.00 248.40,187.00 248.40,197.20 232.40,205.20 z" fill="#103a18"></path><path d="M232.40,195.00 216.40,187.00 232.40,179.00 248.40,187.00 z" fill="#13451d"></path></g> <g data-week="18" data-day="5" class="day"><path d="M215.80,200.60 199.80,192.60 199.80,205.80 215.80,213.80 z" fill="#0e3315"></path><path d="M215.80,200.60 231.80,192.60 231.80,205.80 215.80,213.80 z" fill="#103a18"></path><path d="M215.80,200.60 199.80,192.60 215.80,184.60 231.80,192.60 z" fill="#13451d"></path></g> <g data-week="18" data-day="6" class="day"><path d="M199.20,219.20 183.20,211.20 183.20,214.40 199.20,222.40 z" fill="#212427"></path><path d="M199.20,219.20 215.20,211.20 215.20,214.40 199.20,222.40 z" fill="#26292d"></path><path d="M199.20,219.20 183.20,211.20 199.20,203.20 215.20,211.20 z" fill="#2d3135"></path></g> <g data-week="19" data-day="0" class="day"><path d="M315.40,176.20 299.40,168.20 299.40,171.40 315.40,179.40 z" fill="#212427"></path><path d="M315.40,176.20 331.40,168.20 331.40,171.40 315.40,179.40 z" fill="#26292d"></path><path d="M315.40,176.20 299.40,168.20 315.40,160.20 331.40,168.20 z" fill="#2d3135"></path></g> <g data-week="19" data-day="1" class="day"><path d="M298.80,174.80 282.80,166.80 282.80,180.00 298.80,188.00 z" fill="#0e3315"></path><path d="M298.80,174.80 314.80,166.80 314.80,180.00 298.80,188.00 z" fill="#103a18"></path><path d="M298.80,174.80 282.80,166.80 298.80,158.80 314.80,166.80 z" fill="#13451d"></path></g> <g data-week="19" data-day="2" class="day"><path d="M282.20,183.40 266.20,175.40 266.20,188.60 282.20,196.60 z" fill="#0e3315"></path><path d="M282.20,183.40 298.20,175.40 298.20,188.60 282.20,196.60 z" fill="#103a18"></path><path d="M282.20,183.40 266.20,175.40 282.20,167.40 298.20,175.40 z" fill="#13451d"></path></g> <g data-week="19" data-day="3" class="day"><path d="M265.60,178.00 249.60,170.00 249.60,197.20 265.60,205.20 z" fill="#135a21"></path><path d="M265.60,178.00 281.60,170.00 281.60,197.20 265.60,205.20 z" fill="#166626"></path><path d="M265.60,178.00 249.60,170.00 265.60,162.00 281.60,170.00 z" fill="#1a782d"></path></g> <g data-week="19" data-day="4" class="day"><path d="M249.00,186.60 233.00,178.60 233.00,205.80 249.00,213.80 z" fill="#135a21"></path><path d="M249.00,186.60 265.00,178.60 265.00,205.80 249.00,213.80 z" fill="#166626"></path><path d="M249.00,186.60 233.00,178.60 249.00,170.60 265.00,178.60 z" fill="#1a782d"></path></g> <g data-week="19" data-day="5" class="day"><path d="M232.40,202.20 216.40,194.20 216.40,214.40 232.40,222.40 z" fill="#0e3315"></path><path d="M232.40,202.20 248.40,194.20 248.40,214.40 232.40,222.40 z" fill="#103a18"></path><path d="M232.40,202.20 216.40,194.20 232.40,186.20 248.40,194.20 z" fill="#13451d"></path></g> <g data-week="19" data-day="6" class="day"><path d="M215.80,190.80 199.80,182.80 199.80,223.00 215.80,231.00 z" fill="#135a21"></path><path d="M215.80,190.80 231.80,182.80 231.80,223.00 215.80,231.00 z" fill="#166626"></path><path d="M215.80,190.80 199.80,182.80 215.80,174.80 231.80,182.80 z" fill="#1a782d"></path></g> <g data-week="20" data-day="0" class="day"><path d="M332.00,150.80 316.00,142.80 316.00,180.00 332.00,188.00 z" fill="#135a21"></path><path d="M332.00,150.80 348.00,142.80 348.00,180.00 332.00,188.00 z" fill="#166626"></path><path d="M332.00,150.80 316.00,142.80 332.00,134.80 348.00,142.80 z" fill="#1a782d"></path></g> <g data-week="20" data-day="1" class="day"><path d="M315.40,189.40 299.40,181.40 299.40,188.60 315.40,196.60 z" fill="#0e3315"></path><path d="M315.40,189.40 331.40,181.40 331.40,188.60 315.40,196.60 z" fill="#103a18"></path><path d="M315.40,189.40 299.40,181.40 315.40,173.40 331.40,181.40 z" fill="#13451d"></path></g> <g data-week="20" data-day="2" class="day"><path d="M298.80,122.00 282.80,114.00 282.80,197.20 298.80,205.20 z" fill="#00ab22"></path><path d="M298.80,122.00 314.80,114.00 314.80,197.20 298.80,205.20 z" fill="#00c227"></path><path d="M298.80,122.00 282.80,114.00 298.80,106.00 314.80,114.00 z" fill="#00e52e"></path></g> <g data-week="20" data-day="3" class="day"><path d="M282.20,180.60 266.20,172.60 266.20,205.80 282.20,213.80 z" fill="#135a21"></path><path d="M282.20,180.60 298.20,172.60 298.20,205.80 282.20,213.80 z" fill="#166626"></path><path d="M282.20,180.60 266.20,172.60 282.20,164.60 298.20,172.60 z" fill="#1a782d"></path></g> <g data-week="20" data-day="4" class="day"><path d="M265.60,199.20 249.60,191.20 249.60,214.40 265.60,222.40 z" fill="#0e3315"></path><path d="M265.60,199.20 281.60,191.20 281.60,214.40 265.60,222.40 z" fill="#103a18"></path><path d="M265.60,199.20 249.60,191.20 265.60,183.20 281.60,191.20 z" fill="#13451d"></path></g> <g data-week="20" data-day="5" class="day"><path d="M249.00,167.80 233.00,159.80 233.00,223.00 249.00,231.00 z" fill="#168c2e"></path><path d="M249.00,167.80 265.00,159.80 265.00,223.00 249.00,231.00 z" fill="#199e34"></path><path d="M249.00,167.80 233.00,159.80 249.00,151.80 265.00,159.80 z" fill="#1ebb3e"></path></g> <g data-week="20" data-day="6" class="day"><path d="M232.40,229.40 216.40,221.40 216.40,231.60 232.40,239.60 z" fill="#0e3315"></path><path d="M232.40,229.40 248.40,221.40 248.40,231.60 232.40,239.60 z" fill="#103a18"></path><path d="M232.40,229.40 216.40,221.40 232.40,213.40 248.40,221.40 z" fill="#13451d"></path></g> <g data-week="21" data-day="0" class="day"><path d="M348.60,179.40 332.60,171.40 332.60,188.60 348.60,196.60 z" fill="#0e3315"></path><path d="M348.60,179.40 364.60,171.40 364.60,188.60 348.60,196.60 z" fill="#103a18"></path><path d="M348.60,179.40 332.60,171.40 348.60,163.40 364.60,171.40 z" fill="#13451d"></path></g> <g data-week="21" data-day="1" class="day"><path d="M332.00,135.00 316.00,127.00 316.00,197.20 332.00,205.20 z" fill="#00ab22"></path><path d="M332.00,135.00 348.00,127.00 348.00,197.20 332.00,205.20 z" fill="#00c227"></path><path d="M332.00,135.00 316.00,127.00 332.00,119.00 348.00,127.00 z" fill="#00e52e"></path></g> <g data-week="21" data-day="2" class="day"><path d="M315.40,143.60 299.40,135.60 299.40,205.80 315.40,213.80 z" fill="#00ab22"></path><path d="M315.40,143.60 331.40,135.60 331.40,205.80 315.40,213.80 z" fill="#00c227"></path><path d="M315.40,143.60 299.40,135.60 315.40,127.60 331.40,135.60 z" fill="#00e52e"></path></g> <g data-week="21" data-day="3" class="day"><path d="M298.80,202.20 282.80,194.20 282.80,214.40 298.80,222.40 z" fill="#0e3315"></path><path d="M298.80,202.20 314.80,194.20 314.80,214.40 298.80,222.40 z" fill="#103a18"></path><path d="M298.80,202.20 282.80,194.20 298.80,186.20 314.80,194.20 z" fill="#13451d"></path></g> <g data-week="21" data-day="4" class="day"><path d="M282.20,207.80 266.20,199.80 266.20,223.00 282.20,231.00 z" fill="#0e3315"></path><path d="M282.20,207.80 298.20,199.80 298.20,223.00 282.20,231.00 z" fill="#103a18"></path><path d="M282.20,207.80 266.20,199.80 282.20,191.80 298.20,199.80 z" fill="#13451d"></path></g> <g data-week="21" data-day="5" class="day"><path d="M265.60,229.40 249.60,221.40 249.60,231.60 265.60,239.60 z" fill="#0e3315"></path><path d="M265.60,229.40 281.60,221.40 281.60,231.60 265.60,239.60 z" fill="#103a18"></path><path d="M265.60,229.40 249.60,221.40 265.60,213.40 281.60,221.40 z" fill="#13451d"></path></g> <g data-week="21" data-day="6" class="day"><path d="M249.00,241.00 233.00,233.00 233.00,240.20 249.00,248.20 z" fill="#0e3315"></path><path d="M249.00,241.00 265.00,233.00 265.00,240.20 249.00,248.20 z" fill="#103a18"></path><path d="M249.00,241.00 233.00,233.00 249.00,225.00 265.00,233.00 z" fill="#13451d"></path></g> <g data-week="22" data-day="0" class="day"><path d="M365.20,198.00 349.20,190.00 349.20,197.20 365.20,205.20 z" fill="#0e3315"></path><path d="M365.20,198.00 381.20,190.00 381.20,197.20 365.20,205.20 z" fill="#103a18"></path><path d="M365.20,198.00 349.20,190.00 365.20,182.00 381.20,190.00 z" fill="#13451d"></path></g> <g data-week="22" data-day="1" class="day"><path d="M348.60,183.60 332.60,175.60 332.60,205.80 348.60,213.80 z" fill="#135a21"></path><path d="M348.60,183.60 364.60,175.60 364.60,205.80 348.60,213.80 z" fill="#166626"></path><path d="M348.60,183.60 332.60,175.60 348.60,167.60 364.60,175.60 z" fill="#1a782d"></path></g> <g data-week="22" data-day="2" class="day"><path d="M332.00,192.20 316.00,184.20 316.00,214.40 332.00,222.40 z" fill="#135a21"></path><path d="M332.00,192.20 348.00,184.20 348.00,214.40 332.00,222.40 z" fill="#166626"></path><path d="M332.00,192.20 316.00,184.20 332.00,176.20 348.00,184.20 z" fill="#1a782d"></path></g> <g data-week="22" data-day="3" class="day"><path d="M315.40,210.80 299.40,202.80 299.40,223.00 315.40,231.00 z" fill="#0e3315"></path><path d="M315.40,210.80 331.40,202.80 331.40,223.00 315.40,231.00 z" fill="#103a18"></path><path d="M315.40,210.80 299.40,202.80 315.40,194.80 331.40,202.80 z" fill="#13451d"></path></g> <g data-week="22" data-day="4" class="day"><path d="M298.80,226.40 282.80,218.40 282.80,231.60 298.80,239.60 z" fill="#0e3315"></path><path d="M298.80,226.40 314.80,218.40 314.80,231.60 298.80,239.60 z" fill="#103a18"></path><path d="M298.80,226.40 282.80,218.40 298.80,210.40 314.80,218.40 z" fill="#13451d"></path></g> <g data-week="22" data-day="5" class="day"><path d="M282.20,211.00 266.20,203.00 266.20,240.20 282.20,248.20 z" fill="#135a21"></path><path d="M282.20,211.00 298.20,203.00 298.20,240.20 282.20,248.20 z" fill="#166626"></path><path d="M282.20,211.00 266.20,203.00 282.20,195.00 298.20,203.00 z" fill="#1a782d"></path></g> <g data-week="22" data-day="6" class="day"><path d="M265.60,253.60 249.60,245.60 249.60,248.80 265.60,256.80 z" fill="#212427"></path><path d="M265.60,253.60 281.60,245.60 281.60,248.80 265.60,256.80 z" fill="#26292d"></path><path d="M265.60,253.60 249.60,245.60 265.60,237.60 281.60,245.60 z" fill="#2d3135"></path></g> <g data-week="23" data-day="0" class="day"><path d="M381.80,210.60 365.80,202.60 365.80,205.80 381.80,213.80 z" fill="#212427"></path><path d="M381.80,210.60 397.80,202.60 397.80,205.80 381.80,213.80 z" fill="#26292d"></path><path d="M381.80,210.60 365.80,202.60 381.80,194.60 397.80,202.60 z" fill="#2d3135"></path></g> <g data-week="23" data-day="1" class="day"><path d="M365.20,212.20 349.20,204.20 349.20,214.40 365.20,222.40 z" fill="#0e3315"></path><path d="M365.20,212.20 381.20,204.20 381.20,214.40 365.20,222.40 z" fill="#103a18"></path><path d="M365.20,212.20 349.20,204.20 365.20,196.20 381.20,204.20 z" fill="#13451d"></path></g> <g data-week="23" data-day="2" class="day"><path d="M348.60,207.80 332.60,199.80 332.60,223.00 348.60,231.00 z" fill="#0e3315"></path><path d="M348.60,207.80 364.60,199.80 364.60,223.00 348.60,231.00 z" fill="#103a18"></path><path d="M348.60,207.80 332.60,199.80 348.60,191.80 364.60,199.80 z" fill="#13451d"></path></g> <g data-week="23" data-day="3" class="day"><path d="M332.00,222.40 316.00,214.40 316.00,231.60 332.00,239.60 z" fill="#0e3315"></path><path d="M332.00,222.40 348.00,214.40 348.00,231.60 332.00,239.60 z" fill="#103a18"></path><path d="M332.00,222.40 316.00,214.40 332.00,206.40 348.00,214.40 z" fill="#13451d"></path></g> <g data-week="23" data-day="4" class="day"><path d="M315.40,231.00 299.40,223.00 299.40,240.20 315.40,248.20 z" fill="#0e3315"></path><path d="M315.40,231.00 331.40,223.00 331.40,240.20 315.40,248.20 z" fill="#103a18"></path><path d="M315.40,231.00 299.40,223.00 315.40,215.00 331.40,223.00 z" fill="#13451d"></path></g> <g data-week="23" data-day="5" class="day"><path d="M298.80,246.60 282.80,238.60 282.80,248.80 298.80,256.80 z" fill="#0e3315"></path><path d="M298.80,246.60 314.80,238.60 314.80,248.80 298.80,256.80 z" fill="#103a18"></path><path d="M298.80,246.60 282.80,238.60 298.80,230.60 314.80,238.60 z" fill="#13451d"></path></g> <g data-week="23" data-day="6" class="day"><path d="M282.20,262.20 266.20,254.20 266.20,257.40 282.20,265.40 z" fill="#212427"></path><path d="M282.20,262.20 298.20,254.20 298.20,257.40 282.20,265.40 z" fill="#26292d"></path><path d="M282.20,262.20 266.20,254.20 282.20,246.20 298.20,254.20 z" fill="#2d3135"></path></g> <g data-week="24" data-day="0" class="day"><path d="M398.40,219.20 382.40,211.20 382.40,214.40 398.40,222.40 z" fill="#212427"></path><path d="M398.40,219.20 414.40,211.20 414.40,214.40 398.40,222.40 z" fill="#26292d"></path><path d="M398.40,219.20 382.40,211.20 398.40,203.20 414.40,211.20 z" fill="#2d3135"></path></g> <g data-week="24" data-day="1" class="day"><path d="M381.80,220.80 365.80,212.80 365.80,223.00 381.80,231.00 z" fill="#0e3315"></path><path d="M381.80,220.80 397.80,212.80 397.80,223.00 381.80,231.00 z" fill="#103a18"></path><path d="M381.80,220.80 365.80,212.80 381.80,204.80 397.80,212.80 z" fill="#13451d"></path></g> <g data-week="24" data-day="2" class="day"><path d="M365.20,236.40 349.20,228.40 349.20,231.60 365.20,239.60 z" fill="#212427"></path><path d="M365.20,236.40 381.20,228.40 381.20,231.60 365.20,239.60 z" fill="#26292d"></path><path d="M365.20,236.40 349.20,228.40 365.20,220.40 381.20,228.40 z" fill="#2d3135"></path></g> <g data-week="24" data-day="3" class="day"><path d="M348.60,218.00 332.60,210.00 332.60,240.20 348.60,248.20 z" fill="#135a21"></path><path d="M348.60,218.00 364.60,210.00 364.60,240.20 348.60,248.20 z" fill="#166626"></path><path d="M348.60,218.00 332.60,210.00 348.60,202.00 364.60,210.00 z" fill="#1a782d"></path></g> <g data-week="24" data-day="4" class="day"><path d="M332.00,239.60 316.00,231.60 316.00,248.80 332.00,256.80 z" fill="#0e3315"></path><path d="M332.00,239.60 348.00,231.60 348.00,248.80 332.00,256.80 z" fill="#103a18"></path><path d="M332.00,239.60 316.00,231.60 332.00,223.60 348.00,231.60 z" fill="#13451d"></path></g> <g data-week="24" data-day="5" class="day"><path d="M315.40,258.20 299.40,250.20 299.40,257.40 315.40,265.40 z" fill="#0e3315"></path><path d="M315.40,258.20 331.40,250.20 331.40,257.40 315.40,265.40 z" fill="#103a18"></path><path d="M315.40,258.20 299.40,250.20 315.40,242.20 331.40,250.20 z" fill="#13451d"></path></g> <g data-week="24" data-day="6" class="day"><path d="M298.80,260.80 282.80,252.80 282.80,266.00 298.80,274.00 z" fill="#0e3315"></path><path d="M298.80,260.80 314.80,252.80 314.80,266.00 298.80,274.00 z" fill="#103a18"></path><path d="M298.80,260.80 282.80,252.80 298.80,244.80 314.80,252.80 z" fill="#13451d"></path></g> <g data-week="25" data-day="0" class="day"><path d="M415.00,220.80 399.00,212.80 399.00,223.00 415.00,231.00 z" fill="#0e3315"></path><path d="M415.00,220.80 431.00,212.80 431.00,223.00 415.00,231.00 z" fill="#103a18"></path><path d="M415.00,220.80 399.00,212.80 415.00,204.80 431.00,212.80 z" fill="#13451d"></path></g> <g data-week="25" data-day="1" class="day"><path d="M398.40,229.40 382.40,221.40 382.40,231.60 398.40,239.60 z" fill="#0e3315"></path><path d="M398.40,229.40 414.40,221.40 414.40,231.60 398.40,239.60 z" fill="#103a18"></path><path d="M398.40,229.40 382.40,221.40 398.40,213.40 414.40,221.40 z" fill="#13451d"></path></g> <g data-week="25" data-day="2" class="day"><path d="M381.80,238.00 365.80,230.00 365.80,240.20 381.80,248.20 z" fill="#0e3315"></path><path d="M381.80,238.00 397.80,230.00 397.80,240.20 381.80,248.20 z" fill="#103a18"></path><path d="M381.80,238.00 365.80,230.00 381.80,222.00 397.80,230.00 z" fill="#13451d"></path></g> <g data-week="25" data-day="3" class="day"><path d="M365.20,219.60 349.20,211.60 349.20,248.80 365.20,256.80 z" fill="#135a21"></path><path d="M365.20,219.60 381.20,211.60 381.20,248.80 365.20,256.80 z" fill="#166626"></path><path d="M365.20,219.60 349.20,211.60 365.20,203.60 381.20,211.60 z" fill="#1a782d"></path></g> <g data-week="25" data-day="4" class="day"><path d="M348.60,228.20 332.60,220.20 332.60,257.40 348.60,265.40 z" fill="#135a21"></path><path d="M348.60,228.20 364.60,220.20 364.60,257.40 348.60,265.40 z" fill="#166626"></path><path d="M348.60,228.20 332.60,220.20 348.60,212.20 364.60,220.20 z" fill="#1a782d"></path></g> <g data-week="25" data-day="5" class="day"><path d="M332.00,263.80 316.00,255.80 316.00,266.00 332.00,274.00 z" fill="#0e3315"></path><path d="M332.00,263.80 348.00,255.80 348.00,266.00 332.00,274.00 z" fill="#103a18"></path><path d="M332.00,263.80 316.00,255.80 332.00,247.80 348.00,255.80 z" fill="#13451d"></path></g> <g data-week="25" data-day="6" class="day"><path d="M315.40,279.40 299.40,271.40 299.40,274.60 315.40,282.60 z" fill="#212427"></path><path d="M315.40,279.40 331.40,271.40 331.40,274.60 315.40,282.60 z" fill="#26292d"></path><path d="M315.40,279.40 299.40,271.40 315.40,263.40 331.40,271.40 z" fill="#2d3135"></path></g> <g data-week="26" data-day="0" class="day"><path d="M431.60,236.40 415.60,228.40 415.60,231.60 431.60,239.60 z" fill="#212427"></path><path d="M431.60,236.40 447.60,228.40 447.60,231.60 431.60,239.60 z" fill="#26292d"></path><path d="M431.60,236.40 415.60,228.40 431.60,220.40 447.60,228.40 z" fill="#2d3135"></path></g> <g data-week="26" data-day="1" class="day"><path d="M415.00,235.00 399.00,227.00 399.00,240.20 415.00,248.20 z" fill="#0e3315"></path><path d="M415.00,235.00 431.00,227.00 431.00,240.20 415.00,248.20 z" fill="#103a18"></path><path d="M415.00,235.00 399.00,227.00 415.00,219.00 431.00,227.00 z" fill="#13451d"></path></g> <g data-week="26" data-day="2" class="day"><path d="M398.40,226.60 382.40,218.60 382.40,248.80 398.40,256.80 z" fill="#135a21"></path><path d="M398.40,226.60 414.40,218.60 414.40,248.80 398.40,256.80 z" fill="#166626"></path><path d="M398.40,226.60 382.40,218.60 398.40,210.60 414.40,218.60 z" fill="#1a782d"></path></g> <g data-week="26" data-day="3" class="day"><path d="M381.80,242.20 365.80,234.20 365.80,257.40 381.80,265.40 z" fill="#0e3315"></path><path d="M381.80,242.20 397.80,234.20 397.80,257.40 381.80,265.40 z" fill="#103a18"></path><path d="M381.80,242.20 365.80,234.20 381.80,226.20 397.80,234.20 z" fill="#13451d"></path></g> <g data-week="26" data-day="4" class="day"><path d="M365.20,240.80 349.20,232.80 349.20,266.00 365.20,274.00 z" fill="#135a21"></path><path d="M365.20,240.80 381.20,232.80 381.20,266.00 365.20,274.00 z" fill="#166626"></path><path d="M365.20,240.80 349.20,232.80 365.20,224.80 381.20,232.80 z" fill="#1a782d"></path></g> <g data-week="26" data-day="5" class="day"><path d="M348.60,275.40 332.60,267.40 332.60,274.60 348.60,282.60 z" fill="#0e3315"></path><path d="M348.60,275.40 364.60,267.40 364.60,274.60 348.60,282.60 z" fill="#103a18"></path><path d="M348.60,275.40 332.60,267.40 348.60,259.40 364.60,267.40 z" fill="#13451d"></path></g> <g data-week="26" data-day="6" class="day"><path d="M332.00,288.00 316.00,280.00 316.00,283.20 332.00,291.20 z" fill="#212427"></path><path d="M332.00,288.00 348.00,280.00 348.00,283.20 332.00,291.20 z" fill="#26292d"></path><path d="M332.00,288.00 316.00,280.00 332.00,272.00 348.00,280.00 z" fill="#2d3135"></path></g> <g data-week="27" data-day="0" class="day"><path d="M448.20,245.00 432.20,237.00 432.20,240.20 448.20,248.20 z" fill="#212427"></path><path d="M448.20,245.00 464.20,237.00 464.20,240.20 448.20,248.20 z" fill="#26292d"></path><path d="M448.20,245.00 432.20,237.00 448.20,229.00 464.20,237.00 z" fill="#2d3135"></path></g> <g data-week="27" data-day="1" class="day"><path d="M431.60,236.60 415.60,228.60 415.60,248.80 431.60,256.80 z" fill="#0e3315"></path><path d="M431.60,236.60 447.60,228.60 447.60,248.80 431.60,256.80 z" fill="#103a18"></path><path d="M431.60,236.60 415.60,228.60 431.60,220.60 447.60,228.60 z" fill="#13451d"></path></g> <g data-week="27" data-day="2" class="day"><path d="M415.00,258.20 399.00,250.20 399.00,257.40 415.00,265.40 z" fill="#0e3315"></path><path d="M415.00,258.20 431.00,250.20 431.00,257.40 415.00,265.40 z" fill="#103a18"></path><path d="M415.00,258.20 399.00,250.20 415.00,242.20 431.00,250.20 z" fill="#13451d"></path></g> <g data-week="27" data-day="3" class="day"><path d="M398.40,260.80 382.40,252.80 382.40,266.00 398.40,274.00 z" fill="#0e3315"></path><path d="M398.40,260.80 414.40,252.80 414.40,266.00 398.40,274.00 z" fill="#103a18"></path><path d="M398.40,260.80 382.40,252.80 398.40,244.80 414.40,252.80 z" fill="#13451d"></path></g> <g data-week="27" data-day="4" class="day"><path d="M381.80,269.40 365.80,261.40 365.80,274.60 381.80,282.60 z" fill="#0e3315"></path><path d="M381.80,269.40 397.80,261.40 397.80,274.60 381.80,282.60 z" fill="#103a18"></path><path d="M381.80,269.40 365.80,261.40 381.80,253.40 397.80,261.40 z" fill="#13451d"></path></g> <g data-week="27" data-day="5" class="day"><path d="M365.20,278.00 349.20,270.00 349.20,283.20 365.20,291.20 z" fill="#0e3315"></path><path d="M365.20,278.00 381.20,270.00 381.20,283.20 365.20,291.20 z" fill="#103a18"></path><path d="M365.20,278.00 349.20,270.00 365.20,262.00 381.20,270.00 z" fill="#13451d"></path></g> <g data-week="27" data-day="6" class="day"><path d="M348.60,296.60 332.60,288.60 332.60,291.80 348.60,299.80 z" fill="#212427"></path><path d="M348.60,296.60 364.60,288.60 364.60,291.80 348.60,299.80 z" fill="#26292d"></path><path d="M348.60,296.60 332.60,288.60 348.60,280.60 364.60,288.60 z" fill="#2d3135"></path></g> <g data-week="28" data-day="0" class="day"><path d="M464.80,253.60 448.80,245.60 448.80,248.80 464.80,256.80 z" fill="#212427"></path><path d="M464.80,253.60 480.80,245.60 480.80,248.80 464.80,256.80 z" fill="#26292d"></path><path d="M464.80,253.60 448.80,245.60 464.80,237.60 480.80,245.60 z" fill="#2d3135"></path></g> <g data-week="28" data-day="1" class="day"><path d="M448.20,262.20 432.20,254.20 432.20,257.40 448.20,265.40 z" fill="#212427"></path><path d="M448.20,262.20 464.20,254.20 464.20,257.40 448.20,265.40 z" fill="#26292d"></path><path d="M448.20,262.20 432.20,254.20 448.20,246.20 464.20,254.20 z" fill="#2d3135"></path></g> <g data-week="28" data-day="2" class="day"><path d="M431.60,270.80 415.60,262.80 415.60,266.00 431.60,274.00 z" fill="#212427"></path><path d="M431.60,270.80 447.60,262.80 447.60,266.00 431.60,274.00 z" fill="#26292d"></path><path d="M431.60,270.80 415.60,262.80 431.60,254.80 447.60,262.80 z" fill="#2d3135"></path></g> <g data-week="28" data-day="3" class="day"><path d="M415.00,269.40 399.00,261.40 399.00,274.60 415.00,282.60 z" fill="#0e3315"></path><path d="M415.00,269.40 431.00,261.40 431.00,274.60 415.00,282.60 z" fill="#103a18"></path><path d="M415.00,269.40 399.00,261.40 415.00,253.40 431.00,261.40 z" fill="#13451d"></path></g> <g data-week="28" data-day="4" class="day"><path d="M398.40,258.00 382.40,250.00 382.40,283.20 398.40,291.20 z" fill="#135a21"></path><path d="M398.40,258.00 414.40,250.00 414.40,283.20 398.40,291.20 z" fill="#166626"></path><path d="M398.40,258.00 382.40,250.00 398.40,242.00 414.40,250.00 z" fill="#1a782d"></path></g> <g data-week="28" data-day="5" class="day"><path d="M381.80,282.60 365.80,274.60 365.80,291.80 381.80,299.80 z" fill="#0e3315"></path><path d="M381.80,282.60 397.80,274.60 397.80,291.80 381.80,299.80 z" fill="#103a18"></path><path d="M381.80,282.60 365.80,274.60 381.80,266.60 397.80,274.60 z" fill="#13451d"></path></g> <g data-week="28" data-day="6" class="day"><path d="M365.20,305.20 349.20,297.20 349.20,300.40 365.20,308.40 z" fill="#212427"></path><path d="M365.20,305.20 381.20,297.20 381.20,300.40 365.20,308.40 z" fill="#26292d"></path><path d="M365.20,305.20 349.20,297.20 365.20,289.20 381.20,297.20 z" fill="#2d3135"></path></g> <g data-week="29" data-day="0" class="day"><path d="M481.40,262.20 465.40,254.20 465.40,257.40 481.40,265.40 z" fill="#212427"></path><path d="M481.40,262.20 497.40,254.20 497.40,257.40 481.40,265.40 z" fill="#26292d"></path><path d="M481.40,262.20 465.40,254.20 481.40,246.20 497.40,254.20 z" fill="#2d3135"></path></g> <g data-week="29" data-day="1" class="day"><path d="M464.80,260.80 448.80,252.80 448.80,266.00 464.80,274.00 z" fill="#0e3315"></path><path d="M464.80,260.80 480.80,252.80 480.80,266.00 464.80,274.00 z" fill="#103a18"></path><path d="M464.80,260.80 448.80,252.80 464.80,244.80 480.80,252.80 z" fill="#13451d"></path></g> <g data-week="29" data-day="2" class="day"><path d="M448.20,279.40 432.20,271.40 432.20,274.60 448.20,282.60 z" fill="#212427"></path><path d="M448.20,279.40 464.20,271.40 464.20,274.60 448.20,282.60 z" fill="#26292d"></path><path d="M448.20,279.40 432.20,271.40 448.20,263.40 464.20,271.40 z" fill="#2d3135"></path></g> </g> </svg>